<svg width="54" height="60" viewBox="0 0 54 60" fill="none" xmlns="http://www.w3.org/2000/svg">
<rect width="54" height="60" rx="15" fill="#EBEBEB"/>
<path d="M36.0001 29.9999C36.0001 30.1988 35.9211 30.3896 35.7804 30.5303C35.6398 30.6709 35.449 30.7499 35.2501 30.7499H20.5604L26.0307 36.2193C26.1004 36.289 26.1557 36.3717 26.1934 36.4628C26.2311 36.5538 26.2505 36.6514 26.2505 36.7499C26.2505 36.8485 26.2311 36.9461 26.1934 37.0371C26.1557 37.1281 26.1004 37.2109 26.0307 37.2806C25.961 37.3502 25.8783 37.4055 25.7873 37.4432C25.6962 37.4809 25.5986 37.5003 25.5001 37.5003C25.4016 37.5003 25.304 37.4809 25.2129 37.4432C25.1219 37.4055 25.0392 37.3502 24.9695 37.2806L18.2195 30.5306C18.1497 30.4609 18.0944 30.3782 18.0567 30.2871C18.0189 30.1961 17.9995 30.0985 17.9995 29.9999C17.9995 29.9014 18.0189 29.8038 18.0567 29.7127C18.0944 29.6217 18.1497 29.539 18.2195 29.4693L24.9695 22.7193C25.1102 22.5786 25.3011 22.4995 25.5001 22.4995C25.6991 22.4995 25.89 22.5786 26.0307 22.7193C26.1715 22.86 26.2505 23.0509 26.2505 23.2499C26.2505 23.449 26.1715 23.6398 26.0307 23.7806L20.5604 29.2499H35.2501C35.449 29.2499 35.6398 29.3289 35.7804 29.4696C35.9211 29.6103 36.0001 29.801 36.0001 29.9999Z" fill="black"/>
</svg>
