<svg width="41" height="41" viewBox="0 0 41 41" fill="none" xmlns="http://www.w3.org/2000/svg">
<path d="M33.3125 8.96875H28.873L26.69 5.69516C26.5731 5.51987 26.4147 5.37613 26.2289 5.27668C26.0432 5.17722 25.8357 5.12513 25.625 5.125H15.375C15.1643 5.12513 14.9568 5.17722 14.7711 5.27668C14.5853 5.37613 14.4269 5.51987 14.31 5.69516L12.1254 8.96875H7.6875C6.66807 8.96875 5.6904 9.37372 4.96956 10.0946C4.24872 10.8154 3.84375 11.7931 3.84375 12.8125V30.75C3.84375 31.7694 4.24872 32.7471 4.96956 33.4679C5.6904 34.1888 6.66807 34.5938 7.6875 34.5938H33.3125C34.3319 34.5938 35.3096 34.1888 36.0304 33.4679C36.7513 32.7471 37.1562 31.7694 37.1562 30.75V12.8125C37.1562 11.7931 36.7513 10.8154 36.0304 10.0946C35.3096 9.37372 34.3319 8.96875 33.3125 8.96875ZM34.5938 30.75C34.5938 31.0898 34.4588 31.4157 34.2185 31.656C33.9782 31.8963 33.6523 32.0312 33.3125 32.0312H7.6875C7.34769 32.0312 7.0218 31.8963 6.78152 31.656C6.54124 31.4157 6.40625 31.0898 6.40625 30.75V12.8125C6.40625 12.4727 6.54124 12.1468 6.78152 11.9065C7.0218 11.6662 7.34769 11.5312 7.6875 11.5312H12.8125C13.0235 11.5314 13.2313 11.4794 13.4173 11.38C13.6034 11.2805 13.762 11.1366 13.8791 10.9611L16.0605 7.6875H24.9379L27.1209 10.9611C27.238 11.1366 27.3966 11.2805 27.5827 11.38C27.7687 11.4794 27.9765 11.5314 28.1875 11.5312H33.3125C33.6523 11.5312 33.9782 11.6662 34.2185 11.9065C34.4588 12.1468 34.5938 12.4727 34.5938 12.8125V30.75ZM20.5 14.0938C19.1063 14.0938 17.7438 14.507 16.585 15.2814C15.4261 16.0557 14.5229 17.1563 13.9895 18.4439C13.4562 19.7316 13.3166 21.1484 13.5885 22.5154C13.8604 23.8824 14.5316 25.138 15.5171 26.1235C16.5026 27.109 17.7583 27.7802 19.1252 28.0521C20.4922 28.324 21.9091 28.1845 23.1967 27.6511C24.4844 27.1177 25.5849 26.2145 26.3593 25.0557C27.1336 23.8968 27.5469 22.5344 27.5469 21.1406C27.5448 19.2723 26.8016 17.4812 25.4806 16.1601C24.1595 14.839 22.3683 14.0959 20.5 14.0938ZM20.5 25.625C19.6131 25.625 18.7461 25.362 18.0086 24.8692C17.2712 24.3765 16.6964 23.6761 16.357 22.8567C16.0176 22.0373 15.9288 21.1357 16.1018 20.2658C16.2748 19.3959 16.7019 18.5968 17.3291 17.9697C17.9562 17.3425 18.7553 16.9154 19.6251 16.7424C20.495 16.5694 21.3967 16.6582 22.2161 16.9976C23.0355 17.337 23.7359 17.9118 24.2286 18.6492C24.7214 19.3867 24.9844 20.2537 24.9844 21.1406C24.9844 22.33 24.5119 23.4706 23.6709 24.3116C22.83 25.1525 21.6893 25.625 20.5 25.625Z" fill="black" fill-opacity="0.5"/>
</svg>
