<svg width="24" height="24" viewBox="0 0 24 24" fill="none" xmlns="http://www.w3.org/2000/svg">
<path d="M8.46976 18.9698C8.40008 19.0395 8.3448 19.1222 8.30709 19.2132C8.26938 19.3043 8.24997 19.4019 8.24997 19.5004C8.24997 19.599 8.26938 19.6965 8.30709 19.7876C8.3448 19.8786 8.40008 19.9614 8.46976 20.031C8.53944 20.1007 8.62217 20.156 8.71321 20.1937C8.80426 20.2314 8.90184 20.2508 9.00039 20.2508C9.09893 20.2508 9.19651 20.2314 9.28756 20.1937C9.3786 20.156 9.46133 20.1007 9.53101 20.031L17.031 12.531C17.1007 12.4614 17.1561 12.3787 17.1938 12.2876C17.2315 12.1966 17.251 12.099 17.251 12.0004C17.251 11.9019 17.2315 11.8043 17.1938 11.7132C17.1561 11.6222 17.1007 11.5394 17.031 11.4698L9.53101 3.96979C9.39028 3.82906 9.19941 3.75 9.00039 3.75C8.80136 3.75 8.61049 3.82906 8.46976 3.96979C8.32903 4.11052 8.24997 4.30139 8.24997 4.50042C8.24997 4.69944 8.32903 4.89031 8.46976 5.03104L15.4401 12.0004L8.46976 18.9698Z" fill="black"/>
</svg>
