<svg width="13" height="13" viewBox="0 0 13 13" fill="none" xmlns="http://www.w3.org/2000/svg">
<path d="M10.3838 2.58203H2.13379C2.03433 2.58203 1.93895 2.62154 1.86862 2.69187C1.7983 2.76219 1.75879 2.85758 1.75879 2.95703C1.75879 3.05649 1.7983 3.15187 1.86862 3.2222C1.93895 3.29252 2.03433 3.33203 2.13379 3.33203H2.50879V10.082C2.50879 10.2809 2.58781 10.4717 2.72846 10.6124C2.86911 10.753 3.05988 10.832 3.25879 10.832H9.25879C9.4577 10.832 9.64847 10.753 9.78912 10.6124C9.92977 10.4717 10.0088 10.2809 10.0088 10.082V3.33203H10.3838C10.4832 3.33203 10.5786 3.29252 10.649 3.2222C10.7193 3.15187 10.7588 3.05649 10.7588 2.95703C10.7588 2.85758 10.7193 2.76219 10.649 2.69187C10.5786 2.62154 10.4832 2.58203 10.3838 2.58203ZM9.25879 10.082H3.25879V3.33203H9.25879V10.082ZM4.00879 1.45703C4.00879 1.35758 4.0483 1.26219 4.11862 1.19187C4.18895 1.12154 4.28433 1.08203 4.38379 1.08203H8.13379C8.23325 1.08203 8.32863 1.12154 8.39895 1.19187C8.46928 1.26219 8.50879 1.35758 8.50879 1.45703C8.50879 1.55649 8.46928 1.65187 8.39895 1.7222C8.32863 1.79252 8.23325 1.83203 8.13379 1.83203H4.38379C4.28433 1.83203 4.18895 1.79252 4.11862 1.7222C4.0483 1.65187 4.00879 1.55649 4.00879 1.45703Z" fill="#E53E3E"/>
</svg>
