<svg width="10" height="10" viewBox="0 0 10 10" fill="none" xmlns="http://www.w3.org/2000/svg">
<path d="M5.60078 0.697202C5.56226 0.665174 5.5166 0.642877 5.46765 0.632191C5.41871 0.621505 5.36791 0.622744 5.31954 0.635803C5.27118 0.648861 5.22666 0.673357 5.18974 0.707225C5.15282 0.741093 5.12459 0.783341 5.10742 0.830406L4.24805 3.19017L3.3043 2.27572C3.2726 2.24498 3.23475 2.2213 3.19325 2.20625C3.15174 2.1912 3.10751 2.18512 3.06348 2.1884C3.01945 2.19169 2.97661 2.20427 2.9378 2.22531C2.89898 2.24635 2.86506 2.27538 2.83828 2.31048C1.99219 3.41908 1.5625 4.53431 1.5625 5.62494C1.5625 6.53662 1.92466 7.41096 2.56932 8.05562C3.21398 8.70027 4.08832 9.06244 5 9.06244C5.91168 9.06244 6.78602 8.70027 7.43068 8.05562C8.07534 7.41096 8.4375 6.53662 8.4375 5.62494C8.4375 3.30267 6.45352 1.40619 5.60078 0.697202ZM7.1832 5.98978C7.10217 6.4424 6.88441 6.85933 6.55924 7.18443C6.23406 7.50953 5.81709 7.7272 5.36445 7.80814C5.34729 7.81108 5.32991 7.81252 5.3125 7.81244C5.23411 7.81242 5.1586 7.78294 5.10092 7.72984C5.04325 7.67675 5.00764 7.60393 5.00115 7.52581C4.99466 7.44769 5.01777 7.36998 5.06589 7.3081C5.11401 7.24622 5.18363 7.20469 5.26094 7.19173C5.9082 7.08275 6.45742 6.53353 6.56719 5.88509C6.58107 5.80335 6.62685 5.73047 6.69447 5.68249C6.76209 5.63451 6.84599 5.61535 6.92773 5.62923C7.00948 5.64312 7.08235 5.6889 7.13034 5.75652C7.17832 5.82413 7.19748 5.90804 7.18359 5.98978H7.1832Z" fill="url(#paint0_linear_91_3535)"/>
<defs>
<linearGradient id="paint0_linear_91_3535" x1="5" y1="0.625" x2="5" y2="9.06244" gradientUnits="userSpaceOnUse">
<stop stop-color="#FFA500"/>
<stop offset="1" stop-color="#D20101"/>
</linearGradient>
</defs>
</svg>
