<svg width="42" height="42" viewBox="0 0 42 42" fill="none" xmlns="http://www.w3.org/2000/svg">
<path d="M35.4375 6.5625H6.5625C5.86631 6.5625 5.19863 6.83906 4.70634 7.33134C4.21406 7.82363 3.9375 8.49131 3.9375 9.1875V32.8125C3.9375 33.5087 4.21406 34.1764 4.70634 34.6687C5.19863 35.1609 5.86631 35.4375 6.5625 35.4375H35.4375C36.1337 35.4375 36.8014 35.1609 37.2937 34.6687C37.7859 34.1764 38.0625 33.5087 38.0625 32.8125V9.1875C38.0625 8.49131 37.7859 7.82363 37.2937 7.33134C36.8014 6.83906 36.1337 6.5625 35.4375 6.5625ZM35.4375 9.1875V26.0449L31.1604 21.7695C30.9166 21.5256 30.6272 21.3322 30.3087 21.2003C29.9902 21.0683 29.6488 21.0004 29.304 21.0004C28.9593 21.0004 28.6179 21.0683 28.2993 21.2003C27.9808 21.3322 27.6914 21.5256 27.4477 21.7695L24.1664 25.0507L16.9477 17.832C16.4554 17.34 15.788 17.0637 15.0921 17.0637C14.3962 17.0637 13.7288 17.34 13.2366 17.832L6.5625 24.506V9.1875H35.4375ZM6.5625 28.2188L15.0938 19.6875L28.2188 32.8125H6.5625V28.2188ZM35.4375 32.8125H31.9315L26.0252 26.9062L29.3065 23.625L35.4375 29.7577V32.8125ZM23.625 16.4062C23.625 16.0169 23.7405 15.6362 23.9568 15.3125C24.1731 14.9887 24.4806 14.7364 24.8403 14.5874C25.2001 14.4384 25.5959 14.3994 25.9778 14.4753C26.3597 14.5513 26.7105 14.7388 26.9859 15.0141C27.2612 15.2895 27.4487 15.6403 27.5247 16.0222C27.6006 16.4041 27.5616 16.7999 27.4126 17.1597C27.2636 17.5194 27.0113 17.8269 26.6875 18.0432C26.3638 18.2595 25.9831 18.375 25.5938 18.375C25.0716 18.375 24.5708 18.1676 24.2016 17.7984C23.8324 17.4292 23.625 16.9284 23.625 16.4062Z" fill="black" fill-opacity="0.5"/>
</svg>
