<svg width="14" height="14" viewBox="0 0 14 14" fill="none" xmlns="http://www.w3.org/2000/svg">
<path d="M13.5625 6.56281C13.5618 5.86684 13.285 5.19958 12.7929 4.70746C12.3007 4.21533 11.6335 3.93854 10.9375 3.93781H8.76094C8.6018 3.92851 5.82859 3.73328 3.18773 1.51844C3.06021 1.41133 2.90476 1.34285 2.73966 1.32102C2.57456 1.2992 2.40666 1.32494 2.25569 1.39524C2.10471 1.46553 1.97693 1.57744 1.88735 1.71784C1.79778 1.85823 1.75013 2.02127 1.75 2.18781V10.9378C1.75002 11.1044 1.7976 11.2675 1.88713 11.408C1.97667 11.5485 2.10444 11.6605 2.25544 11.7308C2.40643 11.8012 2.57438 11.827 2.73953 11.8052C2.90468 11.7834 3.06017 11.7149 3.18773 11.6077C5.25328 9.87523 7.39867 9.37867 8.3125 9.23977V10.9745C8.31232 11.1186 8.34777 11.2606 8.4157 11.3878C8.48363 11.515 8.58193 11.6234 8.70187 11.7034L9.30344 12.1043C9.41971 12.1819 9.55289 12.2305 9.69181 12.2461C9.83074 12.2616 9.97137 12.2437 10.1019 12.1937C10.2325 12.1438 10.3492 12.0632 10.4422 11.9589C10.5353 11.8546 10.602 11.7295 10.6367 11.5941L11.2804 9.16812C11.9119 9.0841 12.4914 8.77362 12.9111 8.29441C13.3309 7.8152 13.5624 7.19987 13.5625 6.56281ZM2.625 10.934V2.18781C4.96617 4.15164 7.36258 4.64875 8.3125 4.77125V8.35219C7.36367 8.47687 4.96781 8.97289 2.625 10.934ZM9.78906 11.3715V11.3775L9.1875 10.9766V9.18781H10.3688L9.78906 11.3715ZM10.9375 8.31281H9.1875V4.81281H10.9375C11.4016 4.81281 11.8467 4.99719 12.1749 5.32537C12.5031 5.65356 12.6875 6.09868 12.6875 6.56281C12.6875 7.02694 12.5031 7.47206 12.1749 7.80025C11.8467 8.12844 11.4016 8.31281 10.9375 8.31281Z" fill="white"/>
</svg>
