<svg width="24" height="24" viewBox="0 0 24 24" fill="none" xmlns="http://www.w3.org/2000/svg">
<g clip-path="url(#clip0_91_4739)">
<path d="M13.5009 14.7823C14.6766 14.0501 15.5819 12.9548 16.0797 11.6622C16.5775 10.3697 16.6408 8.95013 16.2599 7.61839C15.8791 6.28666 15.0749 5.11518 13.9691 4.2812C12.8632 3.44721 11.5157 2.99609 10.1306 2.99609C8.7455 2.99609 7.39808 3.44721 6.29218 4.2812C5.18629 5.11518 4.3821 6.28666 4.00129 7.61839C3.62047 8.95013 3.68375 10.3697 4.18155 11.6622C4.67935 12.9548 5.58459 14.0501 6.7603 14.7823C4.82437 15.4161 3.08249 16.6002 1.68187 18.267C1.55382 18.4193 1.49151 18.6162 1.50865 18.8145C1.52579 19.0127 1.62098 19.196 1.77327 19.3241C1.92556 19.4521 2.12249 19.5144 2.32072 19.4973C2.51895 19.4801 2.70225 19.3849 2.8303 19.2327C4.71187 16.9864 7.30499 15.7498 10.1259 15.7498C12.9469 15.7498 15.54 16.9864 17.4262 19.2327C17.5543 19.3849 17.7376 19.4801 17.9358 19.4973C18.1341 19.5144 18.331 19.4521 18.4833 19.3241C18.6356 19.196 18.7308 19.0127 18.7479 18.8145C18.765 18.6162 18.7027 18.4193 18.5747 18.267C17.1741 16.6002 15.4322 15.4161 13.5009 14.7823ZM5.25093 9.37484C5.25093 8.41066 5.53684 7.46813 6.07251 6.66644C6.60819 5.86475 7.36956 5.23991 8.26035 4.87093C9.15114 4.50195 10.1313 4.40541 11.077 4.59351C12.0227 4.78162 12.8913 5.24592 13.5731 5.9277C14.2549 6.60948 14.7192 7.47812 14.9073 8.42378C15.0954 9.36944 14.9988 10.3496 14.6298 11.2404C14.2609 12.1312 13.636 12.8926 12.8343 13.4283C12.0326 13.9639 11.0901 14.2498 10.1259 14.2498C8.83346 14.2484 7.59434 13.7343 6.68043 12.8203C5.76651 11.9064 5.25242 10.6673 5.25093 9.37484ZM23.7816 12.5305L20.7816 15.5305C20.7119 15.6002 20.6292 15.6555 20.5381 15.6933C20.4471 15.731 20.3495 15.7504 20.2509 15.7504C20.1524 15.7504 20.0548 15.731 19.9637 15.6933C19.8727 15.6555 19.79 15.6002 19.7203 15.5305L18.2203 14.0305C18.0796 13.8897 18.0005 13.6989 18.0005 13.4998C18.0005 13.3008 18.0796 13.1099 18.2203 12.9692C18.361 12.8285 18.5519 12.7494 18.7509 12.7494C18.95 12.7494 19.1408 12.8285 19.2816 12.9692L20.2509 13.9395L22.7203 11.4692C22.861 11.3285 23.0519 11.2494 23.2509 11.2494C23.45 11.2494 23.6408 11.3285 23.7816 11.4692C23.9223 11.61 24.0013 11.8008 24.0013 11.9998C24.0013 12.1989 23.9223 12.3897 23.7816 12.5305Z" fill="black"/>
</g>
<defs>
<clipPath id="clip0_91_4739">
<rect width="24" height="24" fill="white"/>
</clipPath>
</defs>
</svg>
